<svg width="475" height="100" viewBox="0 0 475 100" fill="none" xmlns="http://www.w3.org/2000/svg">
<g clip-path="url(#clip0_1924_5815)">
<path d="M240.981 19.2174C240.981 15.3815 239.457 11.7027 236.745 8.99035C234.032 6.27796 230.353 4.75415 226.517 4.75415C222.682 4.75415 219.003 6.27796 216.29 8.99035C213.578 11.7027 212.054 15.3815 212.054 19.2174C212.054 23.0534 213.578 26.7321 216.29 29.4445C219.003 32.1569 222.682 33.6807 226.517 33.6807C230.353 33.6807 234.032 32.1569 236.745 29.4445C239.457 26.7321 240.981 23.0534 240.981 19.2174Z" stroke="#80C2E3" stroke-width="0.498391"/>
<path d="M167.267 38.6246C167.253 38.6331 167.237 38.6378 167.221 38.6381C167.205 38.6385 167.189 38.6345 167.175 38.6266C167.161 38.6187 167.149 38.6072 167.141 38.5932C167.133 38.5793 167.129 38.5635 167.129 38.5474L167.142 12.3021C167.142 12.1991 167.091 12.1601 166.99 12.185L153.999 15.3099C153.96 15.3189 153.926 15.3408 153.901 15.372C153.876 15.4032 153.862 15.4419 153.862 15.4819V94.4195C153.862 94.4545 153.876 94.4881 153.901 94.5129C153.926 94.5376 153.959 94.5515 153.994 94.5515H161.224C161.312 94.5515 161.381 94.5158 161.433 94.4444L164.226 90.5096C164.26 90.4612 164.312 90.4282 164.371 90.4179C164.429 90.4077 164.489 90.4209 164.538 90.4548C169.265 93.7342 174.254 94.6961 179.901 94.4593C198.777 93.6644 207.477 78.4236 206.445 61.0821C205.712 48.7519 197.768 38.5399 185.488 36.1003C179.029 34.8169 172.876 35.263 167.267 38.6246Z" stroke="#80C2E3" stroke-width="0.498391"/>
<path d="M16.9195 41.4006C16.8231 41.5069 16.7409 41.497 16.6728 41.3707L14.0786 36.5911C14.0421 36.5247 13.9864 36.4915 13.9117 36.4915L4.9855 36.5288C4.97503 36.5288 4.96466 36.531 4.95499 36.5351C4.94531 36.5392 4.93652 36.5453 4.92912 36.5529C4.92171 36.5606 4.91584 36.5696 4.91183 36.5796C4.90782 36.5896 4.90576 36.6003 4.90576 36.6111V93.3055C4.90576 93.3385 4.91889 93.3702 4.94226 93.3936C4.96562 93.417 4.99731 93.4301 5.03036 93.4301H18.0508C18.0839 93.4301 18.1155 93.417 18.1389 93.3936C18.1623 93.3702 18.1754 93.3385 18.1754 93.3055V52.5521C18.1754 52.464 18.2012 52.3851 18.2527 52.3154C20.8543 48.7519 25.103 46.0456 29.6982 46.6437C35.644 47.4162 37.8693 51.0719 37.8668 56.599C37.8602 68.8511 37.8593 81.065 37.8643 93.2407C37.8643 93.367 37.9275 93.4301 38.0537 93.4301H51.0019C51.085 93.4301 51.1265 93.3886 51.1265 93.3055C51.1365 79.844 51.1356 66.3766 51.124 52.9035C51.1215 50.8302 54.7548 48.2809 56.4518 47.5308C59.0252 46.3895 61.6849 46.2109 64.431 46.995C69.0137 48.3058 70.7656 52.4549 70.8055 56.8607C70.9126 69.0164 70.7855 81.1772 70.8553 93.3379C70.8553 93.3624 70.865 93.3858 70.8823 93.4031C70.8996 93.4204 70.923 93.4301 70.9475 93.4301H83.9754C84.0834 93.4301 84.1374 93.3761 84.1374 93.2681C84.2595 81.0376 83.9829 68.7922 84.0901 56.5641C84.11 54.245 83.9829 52.3503 83.7088 50.88C82.1563 42.5693 76.6341 36.9076 68.2088 35.6915C61.3311 34.6997 53.2347 36.4242 48.1885 41.5252C48.1204 41.595 48.0523 41.5958 47.9842 41.5277C43.0974 36.7531 36.9598 35.1932 30.2938 35.4623C25.0308 35.6741 20.5203 37.4509 16.9195 41.4006Z" stroke="#80C2E3" stroke-width="0.498391"/>
<path d="M118.601 35.4574C110.831 35.5297 104.006 38.3456 98.9694 44.0696C91.9346 52.0713 90.6612 63.3947 92.7146 73.4771C94.8029 83.7465 102.02 91.9774 112.461 93.8937C122.999 95.8275 133.971 93.5573 140.697 84.6087C146.586 76.774 147.528 65.5054 145.599 56.1655C143.767 47.2942 138.4 40.0351 129.645 37.0298C126.104 35.8138 122.369 35.425 118.601 35.4574Z" stroke="#80C2E3" stroke-width="0.498391"/>
<path d="M239.399 41.5505C239.399 40.4878 238.977 39.4686 238.225 38.7171C237.474 37.9656 236.455 37.5435 235.392 37.5435H217.674C217.148 37.5435 216.627 37.6471 216.141 37.8485C215.654 38.0498 215.213 38.345 214.841 38.7171C214.469 39.0892 214.173 39.5309 213.972 40.0171C213.771 40.5032 213.667 41.0243 213.667 41.5505V90.5224C213.667 91.0486 213.771 91.5697 213.972 92.0558C214.173 92.542 214.469 92.9837 214.841 93.3558C215.213 93.7279 215.654 94.023 216.141 94.2244C216.627 94.4258 217.148 94.5294 217.674 94.5294H235.392C236.455 94.5294 237.474 94.1073 238.225 93.3558C238.977 92.6043 239.399 91.5851 239.399 90.5224V41.5505Z" stroke="#80C2E3" stroke-width="0.498391"/>
<path d="M220.788 18.5623C220.21 18.8339 219.577 18.8539 219.577 19.6687C219.579 22.0726 219.604 24.4757 219.652 26.8779C219.657 27.2052 219.757 27.4071 219.951 27.4835C224.372 29.2196 228.735 29.222 233.041 27.491C233.153 27.4462 233.248 27.3694 233.315 27.2704C233.382 27.1713 233.418 27.0546 233.418 26.9353V19.3398C233.418 19.2486 233.39 19.1595 233.339 19.084C233.288 19.0085 233.216 18.95 233.131 18.9162L232.234 18.5548C232.154 18.5216 232.114 18.4626 232.114 18.3779C232.099 16.8628 232.264 15.0262 231.898 13.7179C231.058 10.7102 227.649 8.91595 224.758 9.94264C220.818 11.3406 220.823 14.7895 220.911 18.3629C220.914 18.456 220.873 18.5224 220.788 18.5623Z" stroke="#80C2E3" stroke-width="0.498391"/>
<path d="M223.171 13.8023C222.75 14.7343 222.785 16.7777 222.83 17.8567C222.833 17.9597 222.886 18.0012 222.989 17.9813C225.325 17.4978 227.662 17.4962 229.999 17.9763C230.022 17.9808 230.046 17.9801 230.068 17.9742C230.091 17.9684 230.112 17.9575 230.129 17.9424C230.147 17.9273 230.161 17.9084 230.171 17.8871C230.18 17.8657 230.184 17.8426 230.184 17.8193C230.161 16.6406 230.323 15.1953 229.977 14.1661C228.898 10.959 224.574 10.6848 223.171 13.8023Z" stroke="#80C2E3" stroke-width="0.498391"/>
<path d="M227.347 23.0277C227.876 22.5791 228.212 21.9686 227.948 21.2734C226.994 18.754 223.512 21.4079 225.65 22.9305C225.72 22.9803 225.755 23.0485 225.755 23.1348C225.755 23.8475 225.399 26.4267 226.562 26.3295C227.646 26.2398 227.328 23.9921 227.26 23.242C227.252 23.1556 227.281 23.0842 227.347 23.0277Z" stroke="#80C2E3" stroke-width="0.498391"/>
<path d="M167.157 50.2071L167.162 79.6445C167.162 79.7243 167.187 79.7932 167.239 79.8513C169.075 81.8981 171.426 82.9912 174.294 83.1308C182.557 83.5345 189.839 81.0624 191.882 72.1288C193.218 66.2876 193.382 58.3159 190.167 53.0753C186.739 47.4834 179.24 46.0754 173.05 47.0249C170.801 47.3704 168.861 48.3722 167.232 50.0301C167.182 50.0783 167.157 50.1373 167.157 50.2071Z" stroke="#80C2E3" stroke-width="0.498391"/>
<path d="M118.664 83.587C127.914 83.8187 132.07 76.0837 132.504 67.9001C132.895 60.5439 132.454 50.5312 124.555 47.2742C122.142 46.2799 118.983 46.0532 116.423 46.5865C108.148 48.3034 105.877 56.9829 105.688 64.1821C105.456 72.9488 107.629 83.3129 118.664 83.587Z" stroke="#80C2E3" stroke-width="0.498391"/>
<path d="M231.183 40.8447C231.183 40.7297 231.137 40.6194 231.056 40.5381C230.974 40.4568 230.864 40.4111 230.749 40.4111H222.266C222.151 40.4111 222.041 40.4568 221.96 40.5381C221.878 40.6194 221.833 40.7297 221.833 40.8447V40.9145C221.833 41.0295 221.878 41.1398 221.96 41.2211C222.041 41.3024 222.151 41.3481 222.266 41.3481H230.749C230.864 41.3481 230.974 41.3024 231.056 41.2211C231.137 41.1398 231.183 41.0295 231.183 40.9145V40.8447Z" stroke="#80C2E3" stroke-width="0.498391"/>
<path d="M236.595 43.9076C236.595 43.8898 236.588 43.8727 236.576 43.86C236.563 43.8474 236.546 43.8403 236.528 43.8403H216.478C216.46 43.8403 216.443 43.8474 216.43 43.86C216.417 43.8727 216.41 43.8898 216.41 43.9076V87.0732C216.41 87.0911 216.417 87.1082 216.43 87.1208C216.443 87.1334 216.46 87.1405 216.478 87.1405H236.528C236.546 87.1405 236.563 87.1334 236.576 87.1208C236.588 87.1082 236.595 87.0911 236.595 87.0732V43.9076Z" stroke="#80C2E3" stroke-width="0.498391"/>
<path d="M228.496 90.5218C228.496 89.9971 228.288 89.4938 227.917 89.1227C227.546 88.7517 227.042 88.5432 226.518 88.5432C225.993 88.5432 225.49 88.7517 225.119 89.1227C224.748 89.4938 224.539 89.9971 224.539 90.5218C224.539 91.0466 224.748 91.5498 225.119 91.9209C225.49 92.292 225.993 92.5004 226.518 92.5004C227.042 92.5004 227.546 92.292 227.917 91.9209C228.288 91.5498 228.496 91.0466 228.496 90.5218Z" stroke="#80C2E3" stroke-width="0.498391"/>
<path d="M240.981 19.2174C240.981 23.0534 239.457 26.7321 236.745 29.4445C234.032 32.1569 230.353 33.6807 226.517 33.6807C222.682 33.6807 219.003 32.1569 216.29 29.4445C213.578 26.7321 212.054 23.0534 212.054 19.2174C212.054 15.3815 213.578 11.7027 216.29 8.99035C219.003 6.27796 222.682 4.75415 226.517 4.75415C230.353 4.75415 234.032 6.27796 236.745 8.99035C239.457 11.7027 240.981 15.3815 240.981 19.2174ZM220.788 18.5621C220.21 18.8337 219.577 18.8536 219.577 19.6685C219.579 22.0724 219.604 24.4755 219.652 26.8777C219.657 27.205 219.757 27.4068 219.951 27.4833C224.372 29.2193 228.735 29.2218 233.041 27.4907C233.153 27.446 233.248 27.3692 233.315 27.2701C233.382 27.1711 233.418 27.0544 233.418 26.935V19.3396C233.418 19.2484 233.39 19.1593 233.339 19.0838C233.288 19.0083 233.216 18.9498 233.131 18.9159L232.234 18.5546C232.154 18.5214 232.114 18.4624 232.114 18.3777C232.099 16.8626 232.264 15.026 231.898 13.7177C231.058 10.7099 227.649 8.91571 224.758 9.9424C220.818 11.3404 220.823 14.7892 220.911 18.3627C220.914 18.4557 220.873 18.5222 220.788 18.5621Z" fill="#03A9FC"/>
<path d="M222.83 17.8567C222.785 16.7777 222.75 14.7343 223.171 13.8023C224.574 10.6848 228.898 10.959 229.977 14.1661C230.323 15.1953 230.161 16.6406 230.184 17.8193C230.184 17.8426 230.18 17.8657 230.171 17.8871C230.161 17.9084 230.147 17.9273 230.129 17.9424C230.112 17.9575 230.091 17.9684 230.068 17.9742C230.046 17.9801 230.022 17.9808 229.999 17.9763C227.662 17.4962 225.325 17.4978 222.989 17.9813C222.886 18.0012 222.833 17.9597 222.83 17.8567Z" fill="#03A9FC"/>
<path d="M167.267 38.6246C172.876 35.263 179.029 34.8169 185.488 36.1003C197.768 38.5399 205.713 48.7519 206.445 61.0821C207.477 78.4236 198.778 93.6644 179.901 94.4593C174.254 94.6961 169.265 93.7342 164.538 90.4548C164.489 90.4209 164.429 90.4077 164.371 90.4179C164.313 90.4282 164.261 90.4612 164.227 90.5096L161.433 94.4444C161.382 94.5158 161.312 94.5515 161.224 94.5515H153.995C153.96 94.5515 153.926 94.5376 153.901 94.5129C153.876 94.4881 153.863 94.4545 153.863 94.4195V15.4819C153.863 15.4419 153.876 15.4032 153.901 15.372C153.926 15.3408 153.961 15.3189 154 15.3099L166.99 12.185C167.091 12.1601 167.142 12.1991 167.142 12.3021L167.13 38.5474C167.13 38.5635 167.134 38.5793 167.142 38.5932C167.15 38.6072 167.161 38.6187 167.175 38.6266C167.189 38.6345 167.205 38.6385 167.221 38.6381C167.237 38.6378 167.253 38.6331 167.267 38.6246ZM167.157 50.2072L167.162 79.6447C167.162 79.7244 167.188 79.7934 167.239 79.8515C169.075 81.8982 171.427 82.9914 174.294 83.1309C182.557 83.5346 189.839 81.0626 191.882 72.1289C193.218 66.2878 193.382 58.3161 190.168 53.0755C186.739 47.4835 179.241 46.0756 173.051 47.025C170.801 47.3706 168.862 48.3723 167.232 50.0303C167.182 50.0785 167.157 50.1375 167.157 50.2072Z" fill="#03A9FC"/>
<path d="M227.26 23.242C227.328 23.9921 227.646 26.2398 226.562 26.3295C225.399 26.4267 225.755 23.8475 225.755 23.1348C225.755 23.0485 225.72 22.9803 225.65 22.9305C223.512 21.4079 226.994 18.754 227.948 21.2734C228.212 21.9686 227.876 22.5791 227.347 23.0277C227.281 23.0842 227.252 23.1556 227.26 23.242Z" fill="#03A9FC"/>
<path d="M16.9195 41.4006C20.5203 37.4509 25.0308 35.6741 30.2938 35.4623C36.9598 35.1932 43.0974 36.7531 47.9842 41.5277C48.0523 41.5958 48.1204 41.595 48.1885 41.5252C53.2347 36.4242 61.3311 34.6997 68.2088 35.6915C76.6341 36.9076 82.1563 42.5693 83.7088 50.88C83.9829 52.3503 84.11 54.245 84.0901 56.5641C83.9829 68.7922 84.2595 81.0376 84.1374 93.2681C84.1374 93.3761 84.0834 93.4301 83.9754 93.4301H70.9475C70.923 93.4301 70.8996 93.4204 70.8823 93.4031C70.865 93.3858 70.8553 93.3624 70.8553 93.3379C70.7855 81.1772 70.9126 69.0164 70.8055 56.8607C70.7656 52.4549 69.0137 48.3058 64.431 46.995C61.6849 46.2109 59.0252 46.3895 56.4518 47.5308C54.7548 48.2809 51.1215 50.8302 51.124 52.9035C51.1356 66.3766 51.1365 79.844 51.1265 93.3055C51.1265 93.3886 51.085 93.4301 51.0019 93.4301H38.0537C37.9275 93.4301 37.8643 93.367 37.8643 93.2407C37.8593 81.065 37.8602 68.8511 37.8668 56.599C37.8693 51.0719 35.644 47.4162 29.6982 46.6437C25.103 46.0456 20.8543 48.7519 18.2527 52.3154C18.2012 52.3851 18.1754 52.464 18.1754 52.5521V93.3055C18.1754 93.3385 18.1623 93.3702 18.1389 93.3936C18.1155 93.417 18.0839 93.4301 18.0508 93.4301H5.03036C4.99731 93.4301 4.96562 93.417 4.94226 93.3936C4.91889 93.3702 4.90576 93.3385 4.90576 93.3055V36.6111C4.90576 36.6003 4.90782 36.5896 4.91183 36.5796C4.91584 36.5696 4.92171 36.5606 4.92912 36.5529C4.93652 36.5453 4.94531 36.5392 4.95499 36.5351C4.96466 36.531 4.97503 36.5288 4.9855 36.5288L13.9117 36.4915C13.9864 36.4915 14.0421 36.5247 14.0786 36.5911L16.6728 41.3707C16.7409 41.497 16.8231 41.5069 16.9195 41.4006Z" fill="#03A9FC"/>
<path d="M118.601 35.4574C122.369 35.425 126.104 35.8138 129.645 37.0298C138.4 40.0351 143.767 47.2942 145.599 56.1655C147.528 65.5054 146.586 76.774 140.697 84.6087C133.971 93.5573 122.999 95.8275 112.461 93.8937C102.02 91.9774 94.8029 83.7465 92.7146 73.4771C90.6612 63.3947 91.9346 52.0713 98.9694 44.0696C104.006 38.3456 110.831 35.5297 118.601 35.4574ZM118.663 83.587C127.913 83.8188 132.07 76.0837 132.504 67.9002C132.895 60.5439 132.454 50.5312 124.554 47.2743C122.142 46.28 118.982 46.0532 116.423 46.5865C108.147 48.3034 105.877 56.9829 105.688 64.1822C105.456 72.9488 107.629 83.3129 118.663 83.587Z" fill="#03A9FC"/>
<path d="M239.399 90.5224C239.399 91.5851 238.977 92.6043 238.225 93.3558C237.474 94.1073 236.455 94.5294 235.392 94.5294H217.674C217.148 94.5294 216.627 94.4258 216.141 94.2244C215.654 94.023 215.213 93.7279 214.841 93.3558C214.469 92.9837 214.173 92.542 213.972 92.0558C213.771 91.5697 213.667 91.0486 213.667 90.5224V41.5505C213.667 41.0243 213.771 40.5032 213.972 40.0171C214.173 39.5309 214.469 39.0892 214.841 38.7171C215.213 38.345 215.654 38.0498 216.141 37.8485C216.627 37.6471 217.148 37.5435 217.674 37.5435H235.392C236.455 37.5435 237.474 37.9656 238.225 38.7171C238.977 39.4686 239.399 40.4878 239.399 41.5505V90.5224ZM231.183 40.8453C231.183 40.7303 231.137 40.62 231.056 40.5387C230.975 40.4574 230.864 40.4117 230.749 40.4117H222.267C222.152 40.4117 222.041 40.4574 221.96 40.5387C221.879 40.62 221.833 40.7303 221.833 40.8453V40.9151C221.833 41.0301 221.879 41.1404 221.96 41.2217C222.041 41.303 222.152 41.3487 222.267 41.3487H230.749C230.864 41.3487 230.975 41.303 231.056 41.2217C231.137 41.1404 231.183 41.0301 231.183 40.9151V40.8453ZM236.595 43.9079C236.595 43.8901 236.588 43.8729 236.576 43.8603C236.563 43.8477 236.546 43.8406 236.528 43.8406H216.478C216.46 43.8406 216.443 43.8477 216.43 43.8603C216.418 43.8729 216.411 43.8901 216.411 43.9079V87.0735C216.411 87.0914 216.418 87.1085 216.43 87.1211C216.443 87.1337 216.46 87.1408 216.478 87.1408H236.528C236.546 87.1408 236.563 87.1337 236.576 87.1211C236.588 87.1085 236.595 87.0914 236.595 87.0735V43.9079ZM228.497 90.5224C228.497 89.9976 228.288 89.4944 227.917 89.1233C227.546 88.7522 227.043 88.5438 226.518 88.5438C225.993 88.5438 225.49 88.7522 225.119 89.1233C224.748 89.4944 224.539 89.9976 224.539 90.5224C224.539 91.0471 224.748 91.5504 225.119 91.9215C225.49 92.2925 225.993 92.501 226.518 92.501C227.043 92.501 227.546 92.2925 227.917 91.9215C228.288 91.5504 228.497 91.0471 228.497 90.5224Z" fill="#03A9FC"/>
<path d="M260.319 26.1538H248.207V94.7885H260.319V64.1047H287.773V94.7885H299.885V26.1538H287.773V52.8002H260.319V26.1538Z" fill="#03A9FC" stroke="#03A9FC" stroke-width="0.807467"/>
<path d="M351.563 26.1538H307.959V94.7885H351.563V84.2914H320.071V63.2973H342.681V52.8002H320.071V36.6509H351.563V26.1538Z" fill="#03A9FC" stroke="#03A9FC" stroke-width="0.807467"/>
<path d="M419.389 94.7883H405.663L400.818 81.0608H377.401L372.556 94.7883H358.83L386.284 25.3459H391.936L419.389 94.7883ZM380.631 71.3713H397.184L389.11 46.3401L380.631 71.3713Z" fill="#03A9FC"/>
<path d="M426.657 94.7885V26.1538H438.769V84.2914H470.26V94.7885H426.657Z" fill="#03A9FC" stroke="#03A9FC" stroke-width="0.807467"/>
</g>
<defs>
<clipPath id="clip0_1924_5815">
<rect width="475" height="100" fill="white"/>
</clipPath>
</defs>
</svg>
